<?xml version="1.0" standalone="no"?><svg xmlns:xlink="http://www.w3.org/1999/xlink" xmlns="http://www.w3.org/2000/svg" viewBox="0 0 1920 822.8518495646265" preserveAspectRatio="xMaxYMax slice"><g transform="scale(1.4821219045266472)"><rect x="0" y="0" width="1295.45" height="555.1928571428572" fill="#ffffff"/><g transform="translate(670.86,115.67) scale(2.3135000000000003) rotate(0)"><path d="M10 0L20 10L10 20L0 10L10 0Z" fill="#879bef"/></g><g transform="translate(763.39,115.67) scale(2.3135000000000003) rotate(0)"><path d="M10 0L20 10L10 20L0 10L10 0Z" fill="#fff9fb"/></g><g transform="translate(855.92,115.67) scale(2.3135000000000003) rotate(0)"><path d="M10 0L20 10L10 20L0 10L10 0Z" fill="#ff6c8f"/></g><rect x="208.19732142857143" y="208.19732142857143" width="46.26607142857143" height="46.26607142857143" fill="#ffffff"/><g transform="translate(231.33,208.2) scale(1.1564999999999999) rotate(0)"><path d="M10 0L20 10L10 20L0 10L10 0Z" fill="#8095ee"/></g><rect x="393.26160714285714" y="208.19732142857143" width="46.26607142857143" height="46.26607142857143" fill="#ffffff"/><g transform="translate(393.26,231.33) scale(1.1564999999999999) rotate(0)"><path d="M10 0L20 10L10 20L0 10L10 0Z" fill="#ffe1e8"/></g><g transform="translate(416.39,231.33) scale(1.1564999999999999) rotate(0)"><path d="M10 0L20 10L10 20L0 10L10 0Z" fill="#ffc0cf"/></g><g transform="translate(485.79,208.2) scale(2.3135000000000003) rotate(0)"><path d="M10 0L20 10L10 20L0 10L10 0Z" fill="#5975e9"/></g><g transform="translate(578.33,208.2) scale(2.3135000000000003) rotate(0)"><path d="M10 0L20 10L10 20L0 10L10 0Z" fill="#e5e9fc"/></g><g transform="translate(948.45,208.2) scale(2.3135000000000003) rotate(0)"><path d="M10 0L20 10L10 20L0 10L10 0Z" fill="#ffdee6"/></g><g transform="translate(1040.99,208.2) scale(2.3135000000000003) rotate(0)"><path d="M10 0L20 10L10 20L0 10L10 0Z" fill="#8fa2f1"/></g><g transform="translate(300.73,300.73) scale(2.3135000000000003) rotate(0)"><path d="M10 0L20 10L10 20L0 10L10 0Z" fill="#2d51e4"/></g><g transform="translate(393.26,300.73) scale(2.3135000000000003) rotate(0)"><path d="M10 0L20 10L10 20L0 10L10 0Z" fill="#4c6be8"/></g><rect x="485.79375" y="300.7294642857143" width="46.26607142857143" height="46.26607142857143" fill="#ffffff"/><g transform="translate(485.79,300.73) scale(1.1564999999999999) rotate(0)"><path d="M10 0L20 10L10 20L0 10L10 0Z" fill="#fffdfe"/></g><g transform="translate(508.93,300.73) scale(1.1564999999999999) rotate(0)"><path d="M10 0L20 10L10 20L0 10L10 0Z" fill="#ff416e"/></g><g transform="translate(485.79,323.86) scale(1.1564999999999999) rotate(0)"><path d="M10 0L20 10L10 20L0 10L10 0Z" fill="#ff4d77"/></g><g transform="translate(508.93,323.86) scale(1.1564999999999999) rotate(0)"><path d="M10 0L20 10L10 20L0 10L10 0Z" fill="#a4b3f3"/></g><rect x="578.3258928571429" y="300.7294642857143" width="46.26607142857143" height="46.26607142857143" fill="#ffffff"/><g transform="translate(578.33,300.73) scale(1.1564999999999999) rotate(0)"><path d="M10 0L20 10L10 20L0 10L10 0Z" fill="#899df0"/></g><g transform="translate(601.46,300.73) scale(1.1564999999999999) rotate(0)"><path d="M10 0L20 10L10 20L0 10L10 0Z" fill="#5572e9"/></g><g transform="translate(578.33,323.86) scale(1.1564999999999999) rotate(0)"><path d="M10 0L20 10L10 20L0 10L10 0Z" fill="#2d51e4"/></g><g transform="translate(601.46,323.86) scale(1.1564999999999999) rotate(0)"><path d="M10 0L20 10L10 20L0 10L10 0Z" fill="#b5c1f5"/></g><g transform="translate(670.86,300.73) scale(2.3135000000000003) rotate(0)"><path d="M10 0L20 10L10 20L0 10L10 0Z" fill="#ffd4de"/></g><g transform="translate(763.39,300.73) scale(2.3135000000000003) rotate(0)"><path d="M10 0L20 10L10 20L0 10L10 0Z" fill="#4867e7"/></g><g transform="translate(855.92,300.73) scale(2.3135000000000003) rotate(0)"><path d="M10 0L20 10L10 20L0 10L10 0Z" fill="#fffcfd"/></g><g transform="translate(948.45,300.73) scale(2.3135000000000003) rotate(0)"><path d="M10 0L20 10L10 20L0 10L10 0Z" fill="#516ee8"/></g><rect x="1040.986607142857" y="300.7294642857143" width="46.26607142857143" height="46.26607142857143" fill="#ffffff"/><g transform="translate(1040.99,300.73) scale(1.1564999999999999) rotate(0)"><path d="M10 0L20 10L10 20L0 10L10 0Z" fill="#f5f7fe"/></g><g transform="translate(485.79,393.26) scale(2.3135000000000003) rotate(0)"><path d="M10 0L20 10L10 20L0 10L10 0Z" fill="#aebbf4"/></g><rect x="578.3258928571429" y="393.26160714285714" width="46.26607142857143" height="46.26607142857143" fill="#ffffff"/><g transform="translate(578.33,393.26) scale(1.1564999999999999) rotate(0)"><path d="M10 0L20 10L10 20L0 10L10 0Z" fill="#ff406d"/></g><g transform="translate(601.46,393.26) scale(1.1564999999999999) rotate(0)"><path d="M10 0L20 10L10 20L0 10L10 0Z" fill="#98a9f2"/></g><g transform="translate(578.33,416.39) scale(1.1564999999999999) rotate(0)"><path d="M10 0L20 10L10 20L0 10L10 0Z" fill="#8b9ff0"/></g><g transform="translate(763.39,393.26) scale(2.3135000000000003) rotate(0)"><path d="M10 0L20 10L10 20L0 10L10 0Z" fill="#ffbdcc"/></g><g transform="translate(855.92,393.26) scale(2.3135000000000003) rotate(0)"><path d="M10 0L20 10L10 20L0 10L10 0Z" fill="#e4e8fb"/></g><g transform="translate(948.45,393.26) scale(2.3135000000000003) rotate(0)"><path d="M10 0L20 10L10 20L0 10L10 0Z" fill="#ffd1dc"/></g><g transform="translate(208.2,485.79) scale(2.3135000000000003) rotate(0)"><path d="M10 0L20 10L10 20L0 10L10 0Z" fill="#627ceb"/></g><g transform="translate(300.73,485.79) scale(2.3135000000000003) rotate(0)"><path d="M10 0L20 10L10 20L0 10L10 0Z" fill="#bcc8f6"/></g><g transform="translate(485.79,485.79) scale(2.3135000000000003) rotate(0)"><path d="M10 0L20 10L10 20L0 10L10 0Z" fill="#e2e7fb"/></g><g transform="translate(670.86,485.79) scale(2.3135000000000003) rotate(0)"><path d="M10 0L20 10L10 20L0 10L10 0Z" fill="#ff517b"/></g><rect x="948.4544642857143" y="485.79375" width="46.26607142857143" height="46.26607142857143" fill="#ffffff"/><g transform="translate(971.59,485.79) scale(1.1564999999999999) rotate(0)"><path d="M10 0L20 10L10 20L0 10L10 0Z" fill="#acbaf4"/></g><g transform="translate(1040.99,485.79) scale(2.3135000000000003) rotate(0)"><path d="M10 0L20 10L10 20L0 10L10 0Z" fill="#ff8aa5"/></g></g></svg>