<?xml version="1.0" standalone="no"?><svg xmlns:xlink="http://www.w3.org/1999/xlink" xmlns="http://www.w3.org/2000/svg" viewBox="0 0 1920 1645.7146942642144" preserveAspectRatio="xMaxYMax slice"><g transform="scale(2.85984950042004)"><rect x="0" y="0" width="671.3641666666667" height="575.455" fill="#F1F9FF"/><g transform="translate(641.93,66.48) scale(0.5455) rotate(0)"><path fill-rule="evenodd" clip-rule="evenodd" d="M10 20C15.5228 20 20 15.5228 20 10C20 4.47715 15.5228 0 10 0C4.47715 0 0 4.47715 0 10C0 15.5228 4.47715 20 10 20ZM10 17C13.866 17 17 13.866 17 10C17 6.13401 13.866 3 10 3C6.13401 3 3 6.13401 3 10C3 13.866 6.13401 17 10 17Z" fill="#a7b9f5"/></g><g transform="translate(159.1,111.15) scale(0.874) rotate(0)"><path d="M10 0L20 10L10 20L0 10L10 0Z" fill="#f3deea"/></g><g transform="translate(205.74,109.83) scale(1.0055) rotate(0)"><path fill-rule="evenodd" clip-rule="evenodd" d="M10 20C15.5228 20 20 15.5228 20 10C20 4.47715 15.5228 0 10 0C4.47715 0 0 4.47715 0 10C0 15.5228 4.47715 20 10 20ZM10 17C13.866 17 17 13.866 17 10C17 6.13401 13.866 3 10 3C6.13401 3 3 6.13401 3 10C3 13.866 6.13401 17 10 17Z" fill="#f2f2f9"/></g><g transform="translate(299.24,107.42) scale(1.247) rotate(0)"><path d="M10 0L20 10L10 20L0 10L10 0Z" fill="#e7f1fe"/></g><g transform="translate(592.01,112.46) scale(0.7424999999999999) rotate(0)"><path fill-rule="evenodd" clip-rule="evenodd" d="M10 20C15.5228 20 20 15.5228 20 10C20 4.47715 15.5228 0 10 0C4.47715 0 0 4.47715 0 10C0 15.5228 4.47715 20 10 20ZM10 17C13.866 17 17 13.866 17 10C17 6.13401 13.866 3 10 3C6.13401 3 3 6.13401 3 10C3 13.866 6.13401 17 10 17Z" fill="#f98ca9"/></g><g transform="translate(65.16,161.07) scale(0.6769999999999999) rotate(0)"><path fill-rule="evenodd" clip-rule="evenodd" d="M10 20C15.5228 20 20 15.5228 20 10C20 4.47715 15.5228 0 10 0C4.47715 0 0 4.47715 0 10C0 15.5228 4.47715 20 10 20ZM10 17C13.866 17 17 13.866 17 10C17 6.13401 13.866 3 10 3C6.13401 3 3 6.13401 3 10C3 13.866 6.13401 17 10 17Z" fill="#fa7fa0"/></g><g transform="translate(157.13,157.13) scale(1.0715) rotate(0)"><path fill-rule="evenodd" clip-rule="evenodd" d="M10 20C15.5228 20 20 15.5228 20 10C20 4.47715 15.5228 0 10 0C4.47715 0 0 4.47715 0 10C0 15.5228 4.47715 20 10 20ZM10 17C13.866 17 17 13.866 17 10C17 6.13401 13.866 3 10 3C6.13401 3 3 6.13401 3 10C3 13.866 6.13401 17 10 17Z" fill="#3457e5"/></g><g transform="translate(203.11,155.15) scale(1.2685) rotate(0)"><path fill-rule="evenodd" clip-rule="evenodd" d="M10 20C15.5228 20 20 15.5228 20 10C20 4.47715 15.5228 0 10 0C4.47715 0 0 4.47715 0 10C0 15.5228 4.47715 20 10 20ZM10 17C13.866 17 17 13.866 17 10C17 6.13401 13.866 3 10 3C6.13401 3 3 6.13401 3 10C3 13.866 6.13401 17 10 17Z" fill="#f7a3bc"/></g><g transform="translate(343.35,151.54) scale(1.6305) rotate(0)"><path d="M10 0L20 10L10 20L0 10L10 0Z" fill="#6c87ed"/></g><g transform="translate(490.84,155.15) scale(1.2685) rotate(0)"><path fill-rule="evenodd" clip-rule="evenodd" d="M10 20C15.5228 20 20 15.5228 20 10C20 4.47715 15.5228 0 10 0C4.47715 0 0 4.47715 0 10C0 15.5228 4.47715 20 10 20ZM10 17C13.866 17 17 13.866 17 10C17 6.13401 13.866 3 10 3C6.13401 3 3 6.13401 3 10C3 13.866 6.13401 17 10 17Z" fill="#fc5982"/></g><g transform="translate(640.62,161.07) scale(0.6769999999999999) rotate(0)"><path d="M10 0L20 10L10 20L0 10L10 0Z" fill="#f98aa7"/></g><g transform="translate(19.18,211) scale(0.4795) rotate(0)"><path d="M10 0L20 10L10 20L0 10L10 0Z" fill="#9cb0f3"/></g><g transform="translate(155.15,203.11) scale(1.2685) rotate(0)"><path d="M10 0L20 10L10 20L0 10L10 0Z" fill="#f4c9d9"/></g><g transform="translate(200.48,200.48) scale(1.532) rotate(0)"><path fill-rule="evenodd" clip-rule="evenodd" d="M10 20C15.5228 20 20 15.5228 20 10C20 4.47715 15.5228 0 10 0C4.47715 0 0 4.47715 0 10C0 15.5228 4.47715 20 10 20ZM10 17C13.866 17 17 13.866 17 10C17 6.13401 13.866 3 10 3C6.13401 3 3 6.13401 3 10C3 13.866 6.13401 17 10 17Z" fill="#f98ba8"/></g><g transform="translate(245.8,197.85) scale(1.795) rotate(0)"><path d="M10 0L20 10L10 20L0 10L10 0Z" fill="#869df0"/></g><g transform="translate(291.56,195.65) scale(2.0140000000000002) rotate(0)"><path fill-rule="evenodd" clip-rule="evenodd" d="M10 20C15.5228 20 20 15.5228 20 10C20 4.47715 15.5228 0 10 0C4.47715 0 0 4.47715 0 10C0 15.5228 4.47715 20 10 20ZM10 17C13.866 17 17 13.866 17 10C17 6.13401 13.866 3 10 3C6.13401 3 3 6.13401 3 10C3 13.866 6.13401 17 10 17Z" fill="#f7a1ba"/></g><g transform="translate(538.79,203.11) scale(1.2685) rotate(0)"><path d="M10 0L20 10L10 20L0 10L10 0Z" fill="#bbcbf8"/></g><g transform="translate(639.96,208.37) scale(0.7424999999999999) rotate(0)"><path d="M10 0L20 10L10 20L0 10L10 0Z" fill="#3f60e6"/></g><g transform="translate(197.85,245.8) scale(1.795) rotate(0)"><path d="M10 0L20 10L10 20L0 10L10 0Z" fill="#c7d5f9"/></g><g transform="translate(287.73,239.77) scale(2.3975) rotate(0)"><path fill-rule="evenodd" clip-rule="evenodd" d="M10 20C15.5228 20 20 15.5228 20 10C20 4.47715 15.5228 0 10 0C4.47715 0 0 4.47715 0 10C0 15.5228 4.47715 20 10 20ZM10 17C13.866 17 17 13.866 17 10C17 6.13401 13.866 3 10 3C6.13401 3 3 6.13401 3 10C3 13.866 6.13401 17 10 17Z" fill="#bbcbf8"/></g><g transform="translate(335.68,239.77) scale(2.3975) rotate(0)"><path fill-rule="evenodd" clip-rule="evenodd" d="M10 20C15.5228 20 20 15.5228 20 10C20 4.47715 15.5228 0 10 0C4.47715 0 0 4.47715 0 10C0 15.5228 4.47715 20 10 20ZM10 17C13.866 17 17 13.866 17 10C17 6.13401 13.866 3 10 3C6.13401 3 3 6.13401 3 10C3 13.866 6.13401 17 10 17Z" fill="#2a4fe4"/></g><g transform="translate(383.64,239.77) scale(2.3975) rotate(0)"><path d="M10 0L20 10L10 20L0 10L10 0Z" fill="#1f45e2"/></g><g transform="translate(536.82,249.09) scale(1.466) rotate(0)"><path fill-rule="evenodd" clip-rule="evenodd" d="M10 20C15.5228 20 20 15.5228 20 10C20 4.47715 15.5228 0 10 0C4.47715 0 0 4.47715 0 10C0 15.5228 4.47715 20 10 20ZM10 17C13.866 17 17 13.866 17 10C17 6.13401 13.866 3 10 3C6.13401 3 3 6.13401 3 10C3 13.866 6.13401 17 10 17Z" fill="#fc668b"/></g><g transform="translate(588.06,252.38) scale(1.137) rotate(0)"><path fill-rule="evenodd" clip-rule="evenodd" d="M10 20C15.5228 20 20 15.5228 20 10C20 4.47715 15.5228 0 10 0C4.47715 0 0 4.47715 0 10C0 15.5228 4.47715 20 10 20ZM10 17C13.866 17 17 13.866 17 10C17 6.13401 13.866 3 10 3C6.13401 3 3 6.13401 3 10C3 13.866 6.13401 17 10 17Z" fill="#f7a4bc"/></g><g transform="translate(19.18,306.91) scale(0.4795) rotate(0)"><path fill-rule="evenodd" clip-rule="evenodd" d="M10 20C15.5228 20 20 15.5228 20 10C20 4.47715 15.5228 0 10 0C4.47715 0 0 4.47715 0 10C0 15.5228 4.47715 20 10 20ZM10 17C13.866 17 17 13.866 17 10C17 6.13401 13.866 3 10 3C6.13401 3 3 6.13401 3 10C3 13.866 6.13401 17 10 17Z" fill="#f7a5bd"/></g><g transform="translate(108.51,300.33) scale(1.137) rotate(0)"><path d="M10 0L20 10L10 20L0 10L10 0Z" fill="#637feb"/></g><g transform="translate(197.85,293.76) scale(1.795) rotate(0)"><path fill-rule="evenodd" clip-rule="evenodd" d="M10 20C15.5228 20 20 15.5228 20 10C20 4.47715 15.5228 0 10 0C4.47715 0 0 4.47715 0 10C0 15.5228 4.47715 20 10 20ZM10 17C13.866 17 17 13.866 17 10C17 6.13401 13.866 3 10 3C6.13401 3 3 6.13401 3 10C3 13.866 6.13401 17 10 17Z" fill="#fa7799"/></g><g transform="translate(287.73,287.73) scale(2.3975) rotate(0)"><path fill-rule="evenodd" clip-rule="evenodd" d="M10 20C15.5228 20 20 15.5228 20 10C20 4.47715 15.5228 0 10 0C4.47715 0 0 4.47715 0 10C0 15.5228 4.47715 20 10 20ZM10 17C13.866 17 17 13.866 17 10C17 6.13401 13.866 3 10 3C6.13401 3 3 6.13401 3 10C3 13.866 6.13401 17 10 17Z" fill="#8ca2f1"/></g><g transform="translate(485.57,293.76) scale(1.795) rotate(0)"><path d="M10 0L20 10L10 20L0 10L10 0Z" fill="#f982a2"/></g><g transform="translate(588.06,300.33) scale(1.137) rotate(0)"><path fill-rule="evenodd" clip-rule="evenodd" d="M10 20C15.5228 20 20 15.5228 20 10C20 4.47715 15.5228 0 10 0C4.47715 0 0 4.47715 0 10C0 15.5228 4.47715 20 10 20ZM10 17C13.866 17 17 13.866 17 10C17 6.13401 13.866 3 10 3C6.13401 3 3 6.13401 3 10C3 13.866 6.13401 17 10 17Z" fill="#f1f9ff"/></g><g transform="translate(639.3,303.62) scale(0.8085000000000001) rotate(0)"><path d="M10 0L20 10L10 20L0 10L10 0Z" fill="#1a40e1"/></g><g transform="translate(19.18,354.86) scale(0.4795) rotate(0)"><path fill-rule="evenodd" clip-rule="evenodd" d="M10 20C15.5228 20 20 15.5228 20 10C20 4.47715 15.5228 0 10 0C4.47715 0 0 4.47715 0 10C0 15.5228 4.47715 20 10 20ZM10 17C13.866 17 17 13.866 17 10C17 6.13401 13.866 3 10 3C6.13401 3 3 6.13401 3 10C3 13.866 6.13401 17 10 17Z" fill="#d8e3fc"/></g><g transform="translate(63.85,351.58) scale(0.8085000000000001) rotate(0)"><path fill-rule="evenodd" clip-rule="evenodd" d="M10 20C15.5228 20 20 15.5228 20 10C20 4.47715 15.5228 0 10 0C4.47715 0 0 4.47715 0 10C0 15.5228 4.47715 20 10 20ZM10 17C13.866 17 17 13.866 17 10C17 6.13401 13.866 3 10 3C6.13401 3 3 6.13401 3 10C3 13.866 6.13401 17 10 17Z" fill="#fc648a"/></g><g transform="translate(153.18,345) scale(1.466) rotate(0)"><path d="M10 0L20 10L10 20L0 10L10 0Z" fill="#5473e9"/></g><g transform="translate(197.85,341.71) scale(1.795) rotate(0)"><path fill-rule="evenodd" clip-rule="evenodd" d="M10 20C15.5228 20 20 15.5228 20 10C20 4.47715 15.5228 0 10 0C4.47715 0 0 4.47715 0 10C0 15.5228 4.47715 20 10 20ZM10 17C13.866 17 17 13.866 17 10C17 6.13401 13.866 3 10 3C6.13401 3 3 6.13401 3 10C3 13.866 6.13401 17 10 17Z" fill="#f7a0b9"/></g><g transform="translate(242.51,338.42) scale(2.1235) rotate(0)"><path fill-rule="evenodd" clip-rule="evenodd" d="M10 20C15.5228 20 20 15.5228 20 10C20 4.47715 15.5228 0 10 0C4.47715 0 0 4.47715 0 10C0 15.5228 4.47715 20 10 20ZM10 17C13.866 17 17 13.866 17 10C17 6.13401 13.866 3 10 3C6.13401 3 3 6.13401 3 10C3 13.866 6.13401 17 10 17Z" fill="#f7a7bf"/></g><g transform="translate(335.68,335.68) scale(2.3975) rotate(0)"><path fill-rule="evenodd" clip-rule="evenodd" d="M10 20C15.5228 20 20 15.5228 20 10C20 4.47715 15.5228 0 10 0C4.47715 0 0 4.47715 0 10C0 15.5228 4.47715 20 10 20ZM10 17C13.866 17 17 13.866 17 10C17 6.13401 13.866 3 10 3C6.13401 3 3 6.13401 3 10C3 13.866 6.13401 17 10 17Z" fill="#afc0f6"/></g><g transform="translate(434.33,338.42) scale(2.1235) rotate(0)"><path d="M10 0L20 10L10 20L0 10L10 0Z" fill="#5f7ceb"/></g><g transform="translate(639.3,351.58) scale(0.8085000000000001) rotate(0)"><path fill-rule="evenodd" clip-rule="evenodd" d="M10 20C15.5228 20 20 15.5228 20 10C20 4.47715 15.5228 0 10 0C4.47715 0 0 4.47715 0 10C0 15.5228 4.47715 20 10 20ZM10 17C13.866 17 17 13.866 17 10C17 6.13401 13.866 3 10 3C6.13401 3 3 6.13401 3 10C3 13.866 6.13401 17 10 17Z" fill="#f5bfd2"/></g><g transform="translate(19.18,402.82) scale(0.4795) rotate(0)"><path fill-rule="evenodd" clip-rule="evenodd" d="M10 20C15.5228 20 20 15.5228 20 10C20 4.47715 15.5228 0 10 0C4.47715 0 0 4.47715 0 10C0 15.5228 4.47715 20 10 20ZM10 17C13.866 17 17 13.866 17 10C17 6.13401 13.866 3 10 3C6.13401 3 3 6.13401 3 10C3 13.866 6.13401 17 10 17Z" fill="#b1c2f6"/></g><g transform="translate(64.51,400.19) scale(0.7424999999999999) rotate(0)"><path fill-rule="evenodd" clip-rule="evenodd" d="M10 20C15.5228 20 20 15.5228 20 10C20 4.47715 15.5228 0 10 0C4.47715 0 0 4.47715 0 10C0 15.5228 4.47715 20 10 20ZM10 17C13.866 17 17 13.866 17 10C17 6.13401 13.866 3 10 3C6.13401 3 3 6.13401 3 10C3 13.866 6.13401 17 10 17Z" fill="#f3d8e5"/></g><g transform="translate(291.56,387.47) scale(2.0140000000000002) rotate(0)"><path d="M10 0L20 10L10 20L0 10L10 0Z" fill="#f7a1ba"/></g><g transform="translate(339.52,387.47) scale(2.0140000000000002) rotate(0)"><path d="M10 0L20 10L10 20L0 10L10 0Z" fill="#fb668c"/></g><g transform="translate(387.47,387.47) scale(2.0140000000000002) rotate(0)"><path fill-rule="evenodd" clip-rule="evenodd" d="M10 20C15.5228 20 20 15.5228 20 10C20 4.47715 15.5228 0 10 0C4.47715 0 0 4.47715 0 10C0 15.5228 4.47715 20 10 20ZM10 17C13.866 17 17 13.866 17 10C17 6.13401 13.866 3 10 3C6.13401 3 3 6.13401 3 10C3 13.866 6.13401 17 10 17Z" fill="#e8f2fe"/></g><g transform="translate(437.62,389.67) scale(1.795) rotate(0)"><path d="M10 0L20 10L10 20L0 10L10 0Z" fill="#d5e1fb"/></g><g transform="translate(488.21,392.3) scale(1.532) rotate(0)"><path fill-rule="evenodd" clip-rule="evenodd" d="M10 20C15.5228 20 20 15.5228 20 10C20 4.47715 15.5228 0 10 0C4.47715 0 0 4.47715 0 10C0 15.5228 4.47715 20 10 20ZM10 17C13.866 17 17 13.866 17 10C17 6.13401 13.866 3 10 3C6.13401 3 3 6.13401 3 10C3 13.866 6.13401 17 10 17Z" fill="#f899b3"/></g><g transform="translate(538.79,394.93) scale(1.2685) rotate(0)"><path d="M10 0L20 10L10 20L0 10L10 0Z" fill="#fe3f6d"/></g><g transform="translate(639.96,400.19) scale(0.7424999999999999) rotate(0)"><path fill-rule="evenodd" clip-rule="evenodd" d="M10 20C15.5228 20 20 15.5228 20 10C20 4.47715 15.5228 0 10 0C4.47715 0 0 4.47715 0 10C0 15.5228 4.47715 20 10 20ZM10 17C13.866 17 17 13.866 17 10C17 6.13401 13.866 3 10 3C6.13401 3 3 6.13401 3 10C3 13.866 6.13401 17 10 17Z" fill="#f895b0"/></g><g transform="translate(19.18,450.77) scale(0.4795) rotate(0)"><path fill-rule="evenodd" clip-rule="evenodd" d="M10 20C15.5228 20 20 15.5228 20 10C20 4.47715 15.5228 0 10 0C4.47715 0 0 4.47715 0 10C0 15.5228 4.47715 20 10 20ZM10 17C13.866 17 17 13.866 17 10C17 6.13401 13.866 3 10 3C6.13401 3 3 6.13401 3 10C3 13.866 6.13401 17 10 17Z" fill="#adbff6"/></g><g transform="translate(65.16,448.8) scale(0.6769999999999999) rotate(0)"><path fill-rule="evenodd" clip-rule="evenodd" d="M10 20C15.5228 20 20 15.5228 20 10C20 4.47715 15.5228 0 10 0C4.47715 0 0 4.47715 0 10C0 15.5228 4.47715 20 10 20ZM10 17C13.866 17 17 13.866 17 10C17 6.13401 13.866 3 10 3C6.13401 3 3 6.13401 3 10C3 13.866 6.13401 17 10 17Z" fill="#fc5982"/></g><g transform="translate(111.15,446.83) scale(0.874) rotate(0)"><path d="M10 0L20 10L10 20L0 10L10 0Z" fill="#5d7aeb"/></g><g transform="translate(157.13,444.85) scale(1.0715) rotate(0)"><path d="M10 0L20 10L10 20L0 10L10 0Z" fill="#a9bbf5"/></g><g transform="translate(249.09,440.91) scale(1.466) rotate(0)"><path fill-rule="evenodd" clip-rule="evenodd" d="M10 20C15.5228 20 20 15.5228 20 10C20 4.47715 15.5228 0 10 0C4.47715 0 0 4.47715 0 10C0 15.5228 4.47715 20 10 20ZM10 17C13.866 17 17 13.866 17 10C17 6.13401 13.866 3 10 3C6.13401 3 3 6.13401 3 10C3 13.866 6.13401 17 10 17Z" fill="#ff3c6a"/></g><g transform="translate(295.4,439.26) scale(1.6305) rotate(0)"><path fill-rule="evenodd" clip-rule="evenodd" d="M10 20C15.5228 20 20 15.5228 20 10C20 4.47715 15.5228 0 10 0C4.47715 0 0 4.47715 0 10C0 15.5228 4.47715 20 10 20ZM10 17C13.866 17 17 13.866 17 10C17 6.13401 13.866 3 10 3C6.13401 3 3 6.13401 3 10C3 13.866 6.13401 17 10 17Z" fill="#f891ad"/></g><g transform="translate(343.35,439.26) scale(1.6305) rotate(0)"><path fill-rule="evenodd" clip-rule="evenodd" d="M10 20C15.5228 20 20 15.5228 20 10C20 4.47715 15.5228 0 10 0C4.47715 0 0 4.47715 0 10C0 15.5228 4.47715 20 10 20ZM10 17C13.866 17 17 13.866 17 10C17 6.13401 13.866 3 10 3C6.13401 3 3 6.13401 3 10C3 13.866 6.13401 17 10 17Z" fill="#4969e8"/></g><g transform="translate(391.31,439.26) scale(1.6305) rotate(0)"><path d="M10 0L20 10L10 20L0 10L10 0Z" fill="#f4c8d9"/></g><g transform="translate(440.91,440.91) scale(1.466) rotate(0)"><path fill-rule="evenodd" clip-rule="evenodd" d="M10 20C15.5228 20 20 15.5228 20 10C20 4.47715 15.5228 0 10 0C4.47715 0 0 4.47715 0 10C0 15.5228 4.47715 20 10 20ZM10 17C13.866 17 17 13.866 17 10C17 6.13401 13.866 3 10 3C6.13401 3 3 6.13401 3 10C3 13.866 6.13401 17 10 17Z" fill="#fa7c9d"/></g><g transform="translate(490.84,442.88) scale(1.2685) rotate(0)"><path fill-rule="evenodd" clip-rule="evenodd" d="M10 20C15.5228 20 20 15.5228 20 10C20 4.47715 15.5228 0 10 0C4.47715 0 0 4.47715 0 10C0 15.5228 4.47715 20 10 20ZM10 17C13.866 17 17 13.866 17 10C17 6.13401 13.866 3 10 3C6.13401 3 3 6.13401 3 10C3 13.866 6.13401 17 10 17Z" fill="#fa7f9f"/></g><g transform="translate(540.76,444.85) scale(1.0715) rotate(0)"><path fill-rule="evenodd" clip-rule="evenodd" d="M10 20C15.5228 20 20 15.5228 20 10C20 4.47715 15.5228 0 10 0C4.47715 0 0 4.47715 0 10C0 15.5228 4.47715 20 10 20ZM10 17C13.866 17 17 13.866 17 10C17 6.13401 13.866 3 10 3C6.13401 3 3 6.13401 3 10C3 13.866 6.13401 17 10 17Z" fill="#fb6e92"/></g><g transform="translate(640.62,448.8) scale(0.6769999999999999) rotate(0)"><path d="M10 0L20 10L10 20L0 10L10 0Z" fill="#748eee"/></g><g transform="translate(19.18,498.73) scale(0.4795) rotate(0)"><path d="M10 0L20 10L10 20L0 10L10 0Z" fill="#f1f5fc"/></g><g transform="translate(65.82,497.41) scale(0.611) rotate(0)"><path fill-rule="evenodd" clip-rule="evenodd" d="M10 20C15.5228 20 20 15.5228 20 10C20 4.47715 15.5228 0 10 0C4.47715 0 0 4.47715 0 10C0 15.5228 4.47715 20 10 20ZM10 17C13.866 17 17 13.866 17 10C17 6.13401 13.866 3 10 3C6.13401 3 3 6.13401 3 10C3 13.866 6.13401 17 10 17Z" fill="#7690ee"/></g><g transform="translate(112.46,496.1) scale(0.7424999999999999) rotate(0)"><path d="M10 0L20 10L10 20L0 10L10 0Z" fill="#4767e7"/></g><g transform="translate(159.1,494.78) scale(0.874) rotate(0)"><path fill-rule="evenodd" clip-rule="evenodd" d="M10 20C15.5228 20 20 15.5228 20 10C20 4.47715 15.5228 0 10 0C4.47715 0 0 4.47715 0 10C0 15.5228 4.47715 20 10 20ZM10 17C13.866 17 17 13.866 17 10C17 6.13401 13.866 3 10 3C6.13401 3 3 6.13401 3 10C3 13.866 6.13401 17 10 17Z" fill="#f2eff7"/></g><g transform="translate(205.74,493.47) scale(1.0055) rotate(0)"><path d="M10 0L20 10L10 20L0 10L10 0Z" fill="#f6b0c6"/></g><g transform="translate(252.38,492.15) scale(1.137) rotate(0)"><path fill-rule="evenodd" clip-rule="evenodd" d="M10 20C15.5228 20 20 15.5228 20 10C20 4.47715 15.5228 0 10 0C4.47715 0 0 4.47715 0 10C0 15.5228 4.47715 20 10 20ZM10 17C13.866 17 17 13.866 17 10C17 6.13401 13.866 3 10 3C6.13401 3 3 6.13401 3 10C3 13.866 6.13401 17 10 17Z" fill="#fe416f"/></g><g transform="translate(299.24,491.05) scale(1.247) rotate(0)"><path d="M10 0L20 10L10 20L0 10L10 0Z" fill="#f98ca9"/></g><g transform="translate(347.19,491.05) scale(1.247) rotate(0)"><path d="M10 0L20 10L10 20L0 10L10 0Z" fill="#ecf5fe"/></g><g transform="translate(395.15,491.05) scale(1.247) rotate(0)"><path d="M10 0L20 10L10 20L0 10L10 0Z" fill="#5f7ceb"/></g><g transform="translate(444.2,492.15) scale(1.137) rotate(0)"><path fill-rule="evenodd" clip-rule="evenodd" d="M10 20C15.5228 20 20 15.5228 20 10C20 4.47715 15.5228 0 10 0C4.47715 0 0 4.47715 0 10C0 15.5228 4.47715 20 10 20ZM10 17C13.866 17 17 13.866 17 10C17 6.13401 13.866 3 10 3C6.13401 3 3 6.13401 3 10C3 13.866 6.13401 17 10 17Z" fill="#fe4673"/></g><g transform="translate(493.47,493.47) scale(1.0055) rotate(0)"><path d="M10 0L20 10L10 20L0 10L10 0Z" fill="#fd557e"/></g><g transform="translate(542.74,494.78) scale(0.874) rotate(0)"><path fill-rule="evenodd" clip-rule="evenodd" d="M10 20C15.5228 20 20 15.5228 20 10C20 4.47715 15.5228 0 10 0C4.47715 0 0 4.47715 0 10C0 15.5228 4.47715 20 10 20ZM10 17C13.866 17 17 13.866 17 10C17 6.13401 13.866 3 10 3C6.13401 3 3 6.13401 3 10C3 13.866 6.13401 17 10 17Z" fill="#fd507b"/></g><g transform="translate(592.01,496.1) scale(0.7424999999999999) rotate(0)"><path fill-rule="evenodd" clip-rule="evenodd" d="M10 20C15.5228 20 20 15.5228 20 10C20 4.47715 15.5228 0 10 0C4.47715 0 0 4.47715 0 10C0 15.5228 4.47715 20 10 20ZM10 17C13.866 17 17 13.866 17 10C17 6.13401 13.866 3 10 3C6.13401 3 3 6.13401 3 10C3 13.866 6.13401 17 10 17Z" fill="#fd567f"/></g><g transform="translate(641.28,497.41) scale(0.611) rotate(0)"><path d="M10 0L20 10L10 20L0 10L10 0Z" fill="#5472e9"/></g><g transform="translate(19.18,546.68) scale(0.4795) rotate(0)"><path d="M10 0L20 10L10 20L0 10L10 0Z" fill="#7d95ef"/></g><g transform="translate(66.48,546.02) scale(0.5455) rotate(0)"><path fill-rule="evenodd" clip-rule="evenodd" d="M10 20C15.5228 20 20 15.5228 20 10C20 4.47715 15.5228 0 10 0C4.47715 0 0 4.47715 0 10C0 15.5228 4.47715 20 10 20ZM10 17C13.866 17 17 13.866 17 10C17 6.13401 13.866 3 10 3C6.13401 3 3 6.13401 3 10C3 13.866 6.13401 17 10 17Z" fill="#7a93ef"/></g><g transform="translate(113.78,545.37) scale(0.611) rotate(0)"><path fill-rule="evenodd" clip-rule="evenodd" d="M10 20C15.5228 20 20 15.5228 20 10C20 4.47715 15.5228 0 10 0C4.47715 0 0 4.47715 0 10C0 15.5228 4.47715 20 10 20ZM10 17C13.866 17 17 13.866 17 10C17 6.13401 13.866 3 10 3C6.13401 3 3 6.13401 3 10C3 13.866 6.13401 17 10 17Z" fill="#2b4fe4"/></g><g transform="translate(161.07,544.71) scale(0.6769999999999999) rotate(0)"><path fill-rule="evenodd" clip-rule="evenodd" d="M10 20C15.5228 20 20 15.5228 20 10C20 4.47715 15.5228 0 10 0C4.47715 0 0 4.47715 0 10C0 15.5228 4.47715 20 10 20ZM10 17C13.866 17 17 13.866 17 10C17 6.13401 13.866 3 10 3C6.13401 3 3 6.13401 3 10C3 13.866 6.13401 17 10 17Z" fill="#f1f2fa"/></g><g transform="translate(208.37,544.05) scale(0.7424999999999999) rotate(0)"><path fill-rule="evenodd" clip-rule="evenodd" d="M10 20C15.5228 20 20 15.5228 20 10C20 4.47715 15.5228 0 10 0C4.47715 0 0 4.47715 0 10C0 15.5228 4.47715 20 10 20ZM10 17C13.866 17 17 13.866 17 10C17 6.13401 13.866 3 10 3C6.13401 3 3 6.13401 3 10C3 13.866 6.13401 17 10 17Z" fill="#ff3767"/></g><g transform="translate(255.67,543.39) scale(0.8085000000000001) rotate(0)"><path d="M10 0L20 10L10 20L0 10L10 0Z" fill="#ff3767"/></g><g transform="translate(303.07,542.85) scale(0.8630000000000001) rotate(0)"><path d="M10 0L20 10L10 20L0 10L10 0Z" fill="#375ae5"/></g><g transform="translate(351.03,542.85) scale(0.8630000000000001) rotate(0)"><path d="M10 0L20 10L10 20L0 10L10 0Z" fill="#f7a0b9"/></g><g transform="translate(398.98,542.85) scale(0.8630000000000001) rotate(0)"><path d="M10 0L20 10L10 20L0 10L10 0Z" fill="#c4d2f9"/></g><g transform="translate(447.48,543.39) scale(0.8085000000000001) rotate(0)"><path fill-rule="evenodd" clip-rule="evenodd" d="M10 20C15.5228 20 20 15.5228 20 10C20 4.47715 15.5228 0 10 0C4.47715 0 0 4.47715 0 10C0 15.5228 4.47715 20 10 20ZM10 17C13.866 17 17 13.866 17 10C17 6.13401 13.866 3 10 3C6.13401 3 3 6.13401 3 10C3 13.866 6.13401 17 10 17Z" fill="#f4d6e3"/></g><g transform="translate(496.1,544.05) scale(0.7424999999999999) rotate(0)"><path d="M10 0L20 10L10 20L0 10L10 0Z" fill="#8aa0f1"/></g><g transform="translate(544.71,544.71) scale(0.6769999999999999) rotate(0)"><path d="M10 0L20 10L10 20L0 10L10 0Z" fill="#fe4672"/></g><g transform="translate(593.32,545.37) scale(0.611) rotate(0)"><path d="M10 0L20 10L10 20L0 10L10 0Z" fill="#f98aa8"/></g><g transform="translate(641.93,546.02) scale(0.5455) rotate(0)"><path fill-rule="evenodd" clip-rule="evenodd" d="M10 20C15.5228 20 20 15.5228 20 10C20 4.47715 15.5228 0 10 0C4.47715 0 0 4.47715 0 10C0 15.5228 4.47715 20 10 20ZM10 17C13.866 17 17 13.866 17 10C17 6.13401 13.866 3 10 3C6.13401 3 3 6.13401 3 10C3 13.866 6.13401 17 10 17Z" fill="#f984a3"/></g></g></svg>